<mxfile host="app.diagrams.net" modified="2024-01-20T09:39:15.780Z" agent="Mozilla/5.0 (Macintosh; Intel Mac OS X 10_15_7) AppleWebKit/537.36 (KHTML, like Gecko) Chrome/120.0.0.0 Safari/537.36" version="22.1.21" etag="r5xaX42KOLhm_M85MYjU" type="github">
  <diagram name="第 1 页" id="uWY7DBbuH3-HTiZGo3lG">
    <mxGraphModel>
      <root>
        <mxCell id="0" />
        <mxCell id="1" parent="0" />
      </root>
    </mxGraphModel>
  </diagram>
</mxfile>
